#!OML:ASF H:\BabyWalks\Project 1\Capture day 1\Session 1\baby.ASF
:FULLY-SPECIFIED
:DEGREES
993
root -11.0214 17.6223 -2.14817 -35.665 84.4049 -43.5663
lowerback 19.5351 -3.00847 0.543379
upperback 3.42772 -3.66305 -0.337234
thorax -7.26013 -1.7008 0.245697
lowerneck -0.855099 4.73178 7.53551
upperneck -18.2141 6.66209 -4.10432
head -4.95014 3.25403 -2.79129
rclavicle 4.77083e-015 1.03368e-014
rhumerus -61.8867 16.4727 -84.9611
rradius 49.408
rwrist -2.94516
rhand -2.72121 -13.5639
rfingers 7.12502
rthumb 22.9815 -42.2139
lclavicle 4.77083e-015 1.03368e-014
lhumerus -34.7411 -24.2337 74.2511
lradius 81.1558
lwrist 2.65278
lhand -8.70088 0.677143
lfingers 7.12502
lthumb 17.2344 29.9329
rfemur -25.1087 8.94427 23.4728
rtibia 31.5569
rfoot -14.1573 -3.87143
rtoes -9.21004
lfemur -8.23132 -1.09305 -10.5047
ltibia 39.7915
lfoot -21.6814 -18.3846
ltoes -11.6148
994
root -10.8619 17.5924 -2.12329 -37.7054 84.3876 -45.5358
lowerback 19.457 -2.86999 1.12232
upperback 3.50416 -3.3402 -0.0960459
thorax -7.1521 -1.5547 0.0894371
lowerneck -0.827746 4.571 7.83606
upperneck -18.3851 6.38737 -4.62539
head -4.99182 3.13192 -3.00039
rclavicle 4.41302e-014 2.06736e-014
rhumerus -60.9631 15.8121 -84.5658
rradius 48.261
rwrist -2.47083
rhand -2.81707 -13.5661
rfingers 7.12502
rthumb 22.8895 -42.2276
lclavicle 4.41302e-014 2.06736e-014
lhumerus -35.5736 -24.2891 75.1083
lradius 80.4368
lwrist 2.37162
lhand -8.65568 1.03033
lfingers 7.12502
lthumb 17.2779 30.2823
rfemur -24.9391 8.9558 23.8654
rtibia 32.5725
rfoot -14.7478 -4.06749
rtoes -8.59399
lfemur -9.43853 -0.754444 -9.93626
ltibia 42.7317
lfoot -20.1159 -20.0599
ltoes -12.9716
995
root -10.7039 17.5621 -2.09989 -39.1419 84.2965 -46.8956
lowerback 19.4079 -2.7076 1.68051
upperback 3.58398 -2.99146 0.134102
thorax -7.05123 -1.39423 -0.0720219
lowerneck -0.786605 4.42034 8.08956
upperneck -18.5666 6.13497 -5.08491
head -5.04361 3.02056 -3.18499
rclavicle -5.28767e-014 -8.74653e-015
rhumerus -59.9323 15.2039 -84.1975
rradius 47.0658
rwrist -1.86251
rhand -2.86618 -13.5831
rfingers 7.12502
rthumb 22.8424 -42.2504
lclavicle -5.28767e-014 -8.74653e-015
lhumerus -36.5078 -24.3221 75.9748
lradius 79.5919
lwrist 1.98388
lhand -8.55843 1.4602
lfingers 7.12502
lthumb 17.3715 30.7039
rfemur -24.7208 9.04164 24.2516
rtibia 33.5066
rfoot -15.468 -4.28384
rtoes -8.39078
lfemur -10.6823 -0.465762 -9.38106
ltibia 45.6516
lfoot -18.475 -21.5158
ltoes -14.3334
996
root -10.5469 17.5323 -2.0775 -39.783 84.1501 -47.449
lowerback 19.3931 -2.51928 2.19131
upperback 3.66179 -2.61987 0.344027
thorax -6.96518 -1.22073 -0.232426
lowerneck -0.731149 4.28082 8.29037
upperneck -18.7419 5.90736 -5.46913
head -5.10042 2.9206 -3.33909
rclavicle -8.74653e-015 1.35174e-014
rhumerus -58.81 14.6449 -83.857
rradius 45.8426
rwrist -1.10101
rhand -2.85495 -13.6212
rfingers 7.12502
rthumb 22.8532 -42.2872
lclavicle -8.74653e-015 1.35174e-014
lhumerus -37.5357 -24.336 76.8414
lradius 78.6146
lwrist 1.52156
lhand -8.38496 1.95022
lfingers 7.12502
lthumb 17.5384 31.1791
rfemur -24.4371 9.17238 24.6111
rtibia 34.3422
rfoot -16.2141 -4.52566
rtoes -8.33538
lfemur -11.9229 -0.201547 -8.87028
ltibia 48.4855
lfoot -16.9525 -22.7329
ltoes -15.6033
997
root -10.3906 17.5035 -2.05591 -39.5973 83.9629 -47.1663
lowerback 19.4074 -2.30582 2.63796
upperback 3.73649 -2.22993 0.529286
thorax -6.89206 -1.03651 -0.386284
lowerneck -0.677212 4.15486 8.44915
upperneck -18.8882 5.7051 -5.7869
head -5.15134 2.83206 -3.4657
rclavicle -3.37934e-015 -1.19271e-015
rhumerus -57.6087 14.1285 -83.5379
rradius 44.6208
rwrist -0.159221
rhand -2.78382 -13.6813
rfingers 7.12502
rthumb 22.9214 -42.3388
lclavicle -3.37934e-015 -1.19271e-015
lhumerus -38.635 -24.3278 77.7046
lradius 77.4816
lwrist 0.987398
lhand -8.15863 2.44662
lfingers 7.12502
lthumb 17.7562 31.6559
rfemur -24.0852 9.33044 24.9289
rtibia 35.0687
rfoot -16.991 -4.76321
rtoes -8.4691
lfemur -13.1369 0.0676175 -8.42369
ltibia 51.1844
lfoot -15.7116 -23.6889
ltoes -16.7009
998
root -10.2347 17.4768 -2.03486 -38.7299 83.7415 -46.2013
lowerback 19.4415 -2.06818 3.01849
upperback 3.80164 -1.82339 0.692863
thorax -6.8342 -0.842939 -0.529171
lowerneck -0.616907 4.04433 8.57339
upperneck -19.0042 5.52932 -6.05269
head -5.19585 2.75572 -3.57051
rclavicle 2.80286e-014 -4.37326e-015
rhumerus -56.3498 13.6441 -83.2318
rradius 43.4333
rwrist 0.949787
rhand -2.69053 -13.7503
rfingers 7.12502
rthumb 23.0109 -42.3967
lclavicle 2.80286e-014 -4.37326e-015
lhumerus -39.8019 -24.2945 78.5656
lradius 76.2
lwrist 0.39657
lhand -7.88049 2.91032
lfingers 7.12502
lthumb 18.0238 32.0952
rfemur -23.6745 9.50691 25.2032
rtibia 35.6792
rfoot -17.7824 -4.91984
rtoes -8.70423
lfemur -14.3229 0.372602 -8.04254
ltibia 53.7156
lfoot -14.8745 -24.3835
ltoes -17.6161
999
root -10.0786 17.4531 -2.01412 -37.3811 83.4927 -44.7631
lowerback 19.4843 -1.80938 3.33397
upperback 3.85236 -1.4041 0.839422
thorax -6.7917 -0.642382 -0.656068
lowerneck -0.555416 3.95203 8.69281
upperneck -19.0767 5.37842 -6.30543
head -5.22645 2.69117 -3.66983
rclavicle -8.74653e-015 1.47101e-014
rhumerus -55.0573 13.1877 -82.9333
rradius 42.3125
rwrist 2.22201
rhand -2.60595 -13.8353
rfingers 7.12502
rthumb 23.0921 -42.4716
lclavicle -8.74653e-015 1.47101e-014
lhumerus -41.02 -24.2329 79.4262
lradius 74.7723
lwrist -0.237285
lhand -7.55079 3.30481
lfingers 7.12502
lthumb 18.341 32.4601
rfemur -23.2142 9.7014 25.4361
rtibia 36.1672
rfoot -18.5139 -5.04991
rtoes -8.94265
lfemur -15.4879 0.738054 -7.72387
ltibia 56.0584
lfoot -14.4853 -24.8136
ltoes -18.37
1000
root -9.92212 17.4329 -1.99407 -35.7838 83.2122 -43.0983
lowerback 19.5233 -1.53304 3.60001
upperback 3.88317 -0.973539 0.978454
thorax -6.76484 -0.436237 -0.765503
lowerneck -0.499791 3.87818 8.8246
upperneck -19.0916 5.24849 -6.57173
head -5.23612 2.63685 -3.77402
rclavicle 2.38542e-015 -7.95139e-016
rhumerus -53.7586 12.7657 -82.6389
rradius 41.3008
rwrist 3.61663
rhand -2.56607 -13.9374
rfingers 7.12502
rthumb 23.1304 -42.5688
lclavicle 2.38542e-015 -7.95139e-016
lhumerus -42.2799 -24.1373 80.289
lradius 73.2218
lwrist -0.901112
lhand -7.16017 3.59781
lfingers 7.12502
lthumb 18.7168 32.7174
rfemur -22.7172 9.91034 25.6426
rtibia 36.527
rfoot -19.1822 -5.13655
rtoes -9.1952
lfemur -16.6515 1.18085 -7.45315
ltibia 58.1986
lfoot -14.534 -24.9817
ltoes -19.0229
1001
root -9.76504 17.4169 -1.97497 -34.162 82.9089 -41.438
lowerback 19.5487 -1.24643 3.82678
upperback 3.8937 -0.538873 1.11844
thorax -6.74988 -0.228219 -0.852443
lowerneck -0.459631 3.82453 8.97497
upperneck -19.0414 5.13928 -6.86715
head -5.22009 2.5931 -3.88847
rclavicle 1.72943e-014 -1.68967e-014
rhumerus -52.477 12.3889 -82.3486
rradius 40.4318
rwrist 5.10396
rhand -2.62898 -14.0414
rfingers 7.12502
rthumb 23.07 -42.6804
lclavicle 1.72943e-014 -1.68967e-014
lhumerus -43.5741 -24.0013 81.1545
lradius 71.5835
lwrist -1.58023
lhand -6.68764 3.76928
lfingers 7.12502
lthumb 19.1712 32.8444
rfemur -22.1879 10.1281 25.8313
rtibia 36.7549
rfoot -19.7787 -5.18495
rtoes -9.44416
lfemur -17.8284 1.69592 -7.22168
ltibia 60.1209
lfoot -14.9309 -24.8846
ltoes -19.6063
1002
root -9.60718 17.4057 -1.95731 -32.6453 82.5871 -39.9162
lowerback 19.5533 -0.954591 4.02498
upperback 3.88303 -0.104334 1.26575
thorax -6.74515 -0.0206097 -0.914994
lowerneck -0.429378 3.78946 9.15442
upperneck -18.9319 5.04753 -7.20803
head -5.18032 2.55858 -4.02034
rclavicle 1.10822e-014 -8.84592e-015
rhumerus -51.2468 12.0789 -82.0715
rradius 39.7551
rwrist 6.60557
rhand -2.85033 -14.1637
rfingers 7.12502
rthumb 22.8576 -42.8291
lclavicle 1.10822e-014 -8.84592e-015
lhumerus -44.8925 -23.822 82.0214
lradius 69.8981
lwrist -2.25964
lhand -6.10818 3.80878
lfingers 7.12502
lthumb 19.7284 32.8276
rfemur -21.6289 10.3527 26.0102
rtibia 36.8501
rfoot -20.2999 -5.20677
rtoes -9.6867
lfemur -19.0284 2.2743 -7.02403
ltibia 61.807
lfoot -15.5616 -24.5353
ltoes -20.1227
1003
root -9.44836 17.3997 -1.94179 -31.2683 82.2618 -38.5626
lowerback 19.5421 -0.66353 4.20178
upperback 3.85167 0.323975 1.41804
thorax -6.75376 0.183445 -0.958046
lowerneck -0.401764 3.76989 9.34966
upperneck -18.7722 4.97214 -7.57926
head -5.1219 2.53257 -4.16312
rclavicle -7.02269e-015 -1.55735e-014
rhumerus -50.0973 11.8465 -81.8178
rradius 39.3068
rwrist 8.0443
rhand -3.28383 -14.3041
rfingers 7.12502
rthumb 22.4415 -43.0203
lclavicle -7.02269e-015 -1.55735e-014
lhumerus -46.2328 -23.6059 82.884
lradius 68.2089
lwrist -2.93812
lhand -5.35704 3.7377
lfingers 7.12502
lthumb 20.4503 32.6808
rfemur -21.0347 10.5645 26.1744
rtibia 36.8143
rfoot -20.7489 -5.19279
rtoes -9.90803
lfemur -20.2456 2.8869 -6.87341
ltibia 63.2349
lfoot -16.3252 -23.9453
ltoes -20.6089
1004
root -9.28844 17.3993 -1.92884 -30.0323 81.9459 -37.3732
lowerback 19.5191 -0.380656 4.35889
upperback 3.80372 0.73704 1.57323
thorax -6.7745 0.379688 -0.982571
lowerneck -0.373353 3.76359 9.54423
upperneck -18.5817 4.91342 -7.96254
head -5.05244 2.5152 -4.30907
rclavicle 1.35422e-014 -1.2424e-015
rhumerus -49.0482 11.7115 -81.6007
rradius 39.1175
rwrist 9.33086
rhand -3.97296 -14.464
rfingers 7.12502
rthumb 21.7799 -43.2585
lclavicle 1.35422e-014 -1.2424e-015
lhumerus -47.587 -23.3503 83.7304
lradius 66.5628
lwrist -3.61568
lhand -4.4217 3.56803
lfingers 7.12502
lthumb 21.349 32.412
rfemur -20.4029 10.7469 26.3176
rtibia 36.6516
rfoot -21.1227 -5.13205
rtoes -10.1026
lfemur -21.4695 3.50261 -6.78283
ltibia 64.3805
lfoot -17.1432 -23.13
ltoes -20.9907
1005
root -9.12761 17.4044 -1.9187 -28.9032 81.6555 -36.3047
lowerback 19.492 -0.111015 4.49726
upperback 3.74415 1.12844 1.72319
thorax -6.80659 0.565099 -0.996342
lowerneck -0.338649 3.76442 9.72745
upperneck -18.3784 4.86653 -8.33846
head -4.97989 2.50365 -4.45091
rclavicle 1.69464e-014 -1.39149e-015
rhumerus -48.1182 11.6827 -81.4374
rradius 39.2152
rwrist 10.3631
rhand -4.93966 -14.6654
rfingers 7.12502
rthumb 20.8514 -43.5648
lclavicle 1.69464e-014 -1.39149e-015
lhumerus -48.9475 -23.0701 84.5489
lradius 65
lwrist -4.31368
lhand -3.27153 3.35574
lfingers 7.12502
lthumb 22.4533 32.0705
rfemur -19.7268 10.887 26.4287
rtibia 36.3676
rfoot -21.4238 -5.02215
rtoes -10.2762
lfemur -22.684 4.0876 -6.76867
ltibia 65.2217
lfoot -17.9659 -22.0973
ltoes -21.2876
1006
root -8.96563 17.4154 -1.91123 -27.8207 81.4008 -35.2883
lowerback 19.4651 0.144708 4.61812
upperback 3.67548 1.49682 1.85617
thorax -6.84965 0.738922 -1.01252
lowerneck -0.28797 3.76484 9.89243
upperneck -18.1819 4.82502 -8.68654
head -4.91343 2.49411 -4.58181
rclavicle 1.15295e-014 2.62396e-014
rhumerus -47.3185 11.744 -81.338
rradius 39.6029
rwrist 11.0639
rhand -6.17939 -14.9139
rfingers 7.12502
rthumb 19.6599 -43.9398
lclavicle 1.15295e-014 2.62396e-014
lhumerus -50.3107 -22.7878 85.3253
lradius 63.5534
lwrist -5.03029
lhand -1.88707 3.16369
lfingers 7.12502
lthumb 23.7817 31.7119
rfemur -19.0001 10.9795 26.4962
rtibia 35.9672
rfoot -21.6547 -4.85474
rtoes -10.4067
lfemur -23.8689 4.61641 -6.8454
ltibia 65.7402
lfoot -18.7699 -20.8884
ltoes -21.5197
1007
root -8.80248 17.4318 -1.90603 -26.7936 81.1874 -34.3258
lowerback 19.4445 0.382262 4.72647
upperback 3.60258 1.83764 1.96652
thorax -6.90161 0.898977 -1.03911
lowerneck -0.238312 3.76315 10.0366
upperneck -17.994 4.78625 -8.99899
head -4.85136 2.48493 -4.69841
rclavicle 9.64106e-015 -1.07344e-014
rhumerus -46.6526 11.8918 -81.3117
rradius 40.2825
rwrist 11.3826
rhand -7.64848 -15.2241
rfingers 7.12502
rthumb 18.247 -44.3883
lclavicle 9.64106e-015 -1.07344e-014
lhumerus -51.6684 -22.5196 86.0499
lradius 62.2339
lwrist -5.78307
lhand -0.307899 3.01455
lfingers 7.12502
lthumb 25.2954 31.3573
rfemur -18.2171 11.0255 26.5218
rtibia 35.4538
rfoot -21.8119 -4.63359
rtoes -10.5054
lfemur -25.0058 5.0661 -7.00932
ltibia 65.9232
lfoot -19.5267 -19.5534
ltoes -21.6602
